# xmcd
#
# Track frame offsets: 
#        180
#        11291
#        20568
#        29469
#        40279
#        49110
#        59058
#        70202
#        82525
#        93582
#        103893
#        112468
#        123509
#        134440
#        145219
#        156405
#        169762
#        181617
#        195004
#        206116
#        215927
#        226641
#        239237
#        250013
#
# Disc length: 3482 seconds
#
# Revision: 0
# Processed by: cddbd v1.5.2PL0 Copyright (c) Steve Scherf et al.
# Submitted via: ExactAudioCopy v0.99pb4
#
DISCID=5c0d9818
DTITLE=Various Artist - Phenomenal 45's
DYEAR=1963
DGENRE=Soul
TTITLE0=The Peacocks - I Want To Know
TTITLE1=ROMANS - Wild Ideas
TTITLE2=The Class Notes - Take It Back
TTITLE3=The Dials - School Bells Are Ringing
TTITLE4=The New Invictors - Deeply In Love With You
TTITLE5=The Aladdins - Our Love Will Be
TTITLE6=The Decoys - I Want Only You
TTITLE7=Lou Ragland and Bandmasters - Never Let Me Go
TTITLE8=The Gainors - You Must Be An Angel
TTITLE9=The Individuals - Pillow Wet With Tears
TTITLE10=The Individuals - Wedding Bells
TTITLE11=Duane Calvert - Somewhere, Somehow
TTITLE12=Walco - Tell Me Why
TTITLE13=Delight - Mary Don't You Weep
TTITLE14=Rosie and Rosebuds - Dreamtime
TTITLE15=Jimmy Richards - I'm Blue
TTITLE16=The Poets - Never Let You Go
TTITLE17=Ruben Siggers and Kool Kats - Those Love Me Blues
TTITLE18=The Jades - Walking All Alone
TTITLE19=The Madison Brothers - Baby Don't
TTITLE20=The Madison Brothers - Give Me Your Heart
TTITLE21=Glady Caine - Please Mr. DJ
TTITLE22=Little Henry and The Dewdrops - What Have I Done Wrong
TTITLE23=Links - She's The One
EXTD=
EXTT0=
EXTT1=
EXTT2=
EXTT3=
EXTT4=
EXTT5=
EXTT6=
EXTT7=
EXTT8=
EXTT9=
EXTT10=
EXTT11=
EXTT12=
EXTT13=
EXTT14=
EXTT15=
EXTT16=
EXTT17=
EXTT18=
EXTT19=
EXTT20=
EXTT21=
EXTT22=
EXTT23=
PLAYORDER=
